<svg id="Layer_1" data-name="Layer 1" xmlns="http://www.w3.org/2000/svg" viewBox="0 0 152.21 152.21"><defs><style>.cls-1{fill:#f2f2f2;}.cls-2{fill:#fff;}.cls-3{fill:#34a853;}</style></defs><title>Avatar</title><circle class="cls-1" cx="76.11" cy="76.11" r="76.11"/><path class="cls-2" d="M69.32,63.3a30.91,30.91,0,0,1,14.23,0,13,13,0,1,0-14.23,0Z" transform="translate(-0.33 -2.89)"/><path class="cls-2" d="M76.43,64.31A29.45,29.45,0,0,0,47,93.77h58.91A29.46,29.46,0,0,0,76.43,64.31Z" transform="translate(-0.33 -2.89)"/><path class="cls-3" d="M49.37,105.61V119a6.25,6.25,0,0,1-1.75,4.54,7,7,0,0,1-4.69,2l-.69,0a7.36,7.36,0,0,1-5.14-1.74A6.24,6.24,0,0,1,35.16,119V105.61h2.56V118.9a4.1,4.1,0,0,0,4.52,4.49,4.55,4.55,0,0,0,3.36-1.17,4.46,4.46,0,0,0,1.17-3.3V105.61Z" transform="translate(-0.33 -2.89)"/><path class="cls-3" d="M65.38,118.11a8.74,8.74,0,0,1-1.52,5.36,4.89,4.89,0,0,1-4.13,2,5.3,5.3,0,0,1-4.17-1.69v7h-2.5V110.66h2.28l.12,1.61a5.14,5.14,0,0,1,4.23-1.88,5,5,0,0,1,4.16,2,8.83,8.83,0,0,1,1.53,5.51Zm-2.49-.28a6.45,6.45,0,0,0-1-3.9A3.41,3.41,0,0,0,59,112.5a3.65,3.65,0,0,0-3.39,2v7a3.65,3.65,0,0,0,3.42,2,3.37,3.37,0,0,0,2.85-1.42A7.08,7.08,0,0,0,62.89,117.83Z" transform="translate(-0.33 -2.89)"/><path class="cls-3" d="M71.26,125.24h-2.5v-20.7h2.5Z" transform="translate(-0.33 -2.89)"/><path class="cls-3" d="M74.59,117.81a8.61,8.61,0,0,1,.84-3.85,6.28,6.28,0,0,1,2.34-2.64,6.42,6.42,0,0,1,3.43-.93A6.12,6.12,0,0,1,86,112.45a7.9,7.9,0,0,1,1.84,5.48v.18a8.74,8.74,0,0,1-.81,3.82,6.24,6.24,0,0,1-2.33,2.64,6.56,6.56,0,0,1-3.49.94,6.14,6.14,0,0,1-4.8-2.06A7.9,7.9,0,0,1,74.59,118Zm2.5.3A6.22,6.22,0,0,0,78.22,122a3.59,3.59,0,0,0,3,1.47,3.55,3.55,0,0,0,3-1.49,6.78,6.78,0,0,0,1.12-4.17,6.24,6.24,0,0,0-1.14-3.89,3.63,3.63,0,0,0-3-1.49,3.56,3.56,0,0,0-3,1.47A6.74,6.74,0,0,0,77.09,118.11Z" transform="translate(-0.33 -2.89)"/><path class="cls-3" d="M100,125.24a5.4,5.4,0,0,1-.35-1.54,5.54,5.54,0,0,1-4.15,1.81A5.18,5.18,0,0,1,92,124.29a4,4,0,0,1-1.38-3.09,4.13,4.13,0,0,1,1.73-3.54,8.19,8.19,0,0,1,4.88-1.26H99.6v-1.15a2.81,2.81,0,0,0-.78-2.08,3.12,3.12,0,0,0-2.3-.78,3.64,3.64,0,0,0-2.24.68,2,2,0,0,0-.9,1.63H90.87a3.48,3.48,0,0,1,.77-2.11A5.24,5.24,0,0,1,93.75,111a7,7,0,0,1,2.91-.59,5.75,5.75,0,0,1,4,1.26,4.53,4.53,0,0,1,1.49,3.47v6.71a8.21,8.21,0,0,0,.51,3.19v.22Zm-4.13-1.9a4.32,4.32,0,0,0,2.22-.61,3.64,3.64,0,0,0,1.52-1.57v-3H97.65c-3.06,0-4.58.9-4.58,2.69a2.27,2.27,0,0,0,.78,1.83A3,3,0,0,0,95.86,123.34Z" transform="translate(-0.33 -2.89)"/><path class="cls-3" d="M105.4,117.83a8.54,8.54,0,0,1,1.59-5.4,5.41,5.41,0,0,1,8.22-.29v-7.6h2.49v20.7h-2.29l-.12-1.56a5.07,5.07,0,0,1-4.16,1.83,5,5,0,0,1-4.13-2.08,8.6,8.6,0,0,1-1.6-5.42Zm2.49.28a6.41,6.41,0,0,0,1,3.88,3.29,3.29,0,0,0,2.83,1.4,3.64,3.64,0,0,0,3.46-2.13v-6.7a3.67,3.67,0,0,0-3.44-2.06,3.3,3.3,0,0,0-2.85,1.42A7.06,7.06,0,0,0,107.89,118.11Z" transform="translate(-0.33 -2.89)"/><path class="cls-3" d="M44.43,89v7.68H41.84V77h7.24a7.31,7.31,0,0,1,5.05,1.64A5.61,5.61,0,0,1,56,83a5.51,5.51,0,0,1-1.78,4.4A7.6,7.6,0,0,1,49.05,89Zm0-2.12h4.65a4.67,4.67,0,0,0,3.18-1A3.59,3.59,0,0,0,53.37,83a3.69,3.69,0,0,0-1.11-2.81,4.39,4.39,0,0,0-3-1.1h-4.8Z" transform="translate(-0.33 -2.89)"/><path class="cls-3" d="M61.36,83.81a5.3,5.3,0,0,1,4.31-2q4.62,0,4.67,5.22v9.63h-2.5V87a3.36,3.36,0,0,0-.72-2.33,2.9,2.9,0,0,0-2.2-.75,3.6,3.6,0,0,0-2.13.64,4.39,4.39,0,0,0-1.43,1.7V96.63H58.87V75.93h2.49Z" transform="translate(-0.33 -2.89)"/><path class="cls-3" d="M73.41,89.21a8.65,8.65,0,0,1,.84-3.86,6.23,6.23,0,0,1,2.35-2.64A6.37,6.37,0,0,1,80,81.78a6.15,6.15,0,0,1,4.81,2.06,7.94,7.94,0,0,1,1.84,5.49v.17a8.71,8.71,0,0,1-.81,3.82A6.18,6.18,0,0,1,83.54,96a6.45,6.45,0,0,1-3.49.94,6.11,6.11,0,0,1-4.8-2.06,7.86,7.86,0,0,1-1.84-5.46Zm2.51.29A6.25,6.25,0,0,0,77,93.4a3.81,3.81,0,0,0,6,0,6.82,6.82,0,0,0,1.12-4.17,6.22,6.22,0,0,0-1.14-3.89,3.78,3.78,0,0,0-6,0A6.73,6.73,0,0,0,75.92,89.5Z" transform="translate(-0.33 -2.89)"/><path class="cls-3" d="M93.19,78.52v3.53h2.73V84H93.19v9a2,2,0,0,0,.37,1.32,1.53,1.53,0,0,0,1.24.44A5.9,5.9,0,0,0,96,94.62v2a7.16,7.16,0,0,1-1.91.27,3.1,3.1,0,0,1-2.52-1A4.31,4.31,0,0,1,90.7,93V84H88.05V82.05H90.7V78.52Z" transform="translate(-0.33 -2.89)"/><path class="cls-3" d="M97.9,89.21a8.65,8.65,0,0,1,.84-3.86,6.23,6.23,0,0,1,2.35-2.64,6.37,6.37,0,0,1,3.43-.93,6.18,6.18,0,0,1,4.82,2.06,8,8,0,0,1,1.84,5.49v.17a8.71,8.71,0,0,1-.82,3.82A6.18,6.18,0,0,1,108,96a6.45,6.45,0,0,1-3.49.94,6.12,6.12,0,0,1-4.8-2.06,7.86,7.86,0,0,1-1.84-5.46Zm2.51.29a6.25,6.25,0,0,0,1.12,3.9,3.81,3.81,0,0,0,6,0,6.82,6.82,0,0,0,1.12-4.17,6.22,6.22,0,0,0-1.14-3.89,3.78,3.78,0,0,0-6,0A6.73,6.73,0,0,0,100.41,89.5Z" transform="translate(-0.33 -2.89)"/></svg>