<svg id="Layer_1" data-name="Layer 1" xmlns="http://www.w3.org/2000/svg" viewBox="0 0 134.61 29.46"><defs><style>.cls-1{fill:#4285f4;}.cls-2{fill:#fff;}.cls-3{fill:#34a853;}.cls-4{fill:#fbbc04;}.cls-5{fill:#ea4335;}</style></defs><title>Signup-with-google2</title><rect class="cls-1" width="134.61" height="29.46" rx="2.31"/><rect class="cls-2" x="0.84" y="0.93" width="28.31" height="27.6" rx="1.33"/><path class="cls-3" d="M15.34,19.05a4.06,4.06,0,0,1-3.84-2.76L9.28,18a6.9,6.9,0,0,0,1.27,1.78,6.79,6.79,0,0,0,9.25.31l-2.2-1.73A4.07,4.07,0,0,1,15.34,19.05Z" transform="translate(-0.2 -0.27)"/><path class="cls-4" d="M11.29,15a4,4,0,0,1,.21-1.31L9.3,11.93A6.71,6.71,0,0,0,8.57,15a6.6,6.6,0,0,0,.71,3l2.22-1.72A4,4,0,0,1,11.29,15Z" transform="translate(-0.2 -0.27)"/><path class="cls-5" d="M18,11.9,19.88,10A6.77,6.77,0,0,0,9.3,11.93l2.2,1.76A4.06,4.06,0,0,1,18,11.9Z" transform="translate(-0.2 -0.27)"/><path class="cls-1" d="M21.73,16.35H15.31V13.76h6.42a9.15,9.15,0,0,1,.07,1.31A8.4,8.4,0,0,1,21.73,16.35Z" transform="translate(-0.2 -0.27)"/><path class="cls-1" d="M19,16.35a3.85,3.85,0,0,1-1.41,2l2.2,1.73.33-.31a6.36,6.36,0,0,0,1.6-3.44Z" transform="translate(-0.2 -0.27)"/><path class="cls-2" d="M40.54,14.77a4.29,4.29,0,0,1-1.76-.86,1.61,1.61,0,0,1-.56-1.25,1.73,1.73,0,0,1,.68-1.39,2.66,2.66,0,0,1,1.75-.55A2.93,2.93,0,0,1,42,11a2.14,2.14,0,0,1,.89.79,2,2,0,0,1,.31,1.09h-.94a1.33,1.33,0,0,0-.41-1,1.67,1.67,0,0,0-1.16-.37,1.74,1.74,0,0,0-1.09.3,1,1,0,0,0-.39.85.93.93,0,0,0,.37.74,3.59,3.59,0,0,0,1.26.55,5.53,5.53,0,0,1,1.39.56,2.12,2.12,0,0,1,.75.7,1.8,1.8,0,0,1,.24.94,1.67,1.67,0,0,1-.68,1.39,2.85,2.85,0,0,1-1.8.52,3.29,3.29,0,0,1-1.37-.28,2.29,2.29,0,0,1-1-.77A1.89,1.89,0,0,1,38,15.88h.94a1.23,1.23,0,0,0,.48,1,2,2,0,0,0,1.28.37,1.89,1.89,0,0,0,1.14-.3,1,1,0,0,0,.39-.83,1,1,0,0,0-.36-.81A4.21,4.21,0,0,0,40.54,14.77Z" transform="translate(-0.2 -0.27)"/><path class="cls-2" d="M44.24,11.24a.55.55,0,0,1,.14-.37.51.51,0,0,1,.4-.15.52.52,0,0,1,.4.15.55.55,0,0,1,.14.37.53.53,0,0,1-.14.37.52.52,0,0,1-.4.15.51.51,0,0,1-.4-.15A.53.53,0,0,1,44.24,11.24Zm1,6.7h-.9V12.65h.9Z" transform="translate(-0.2 -0.27)"/><path class="cls-2" d="M46.46,15.25a3.14,3.14,0,0,1,.57-2,2,2,0,0,1,3,0l0-.59h.83v5.17a2.16,2.16,0,0,1-.61,1.62,2.27,2.27,0,0,1-1.64.59,2.64,2.64,0,0,1-1.12-.25,1.86,1.86,0,0,1-.83-.67l.47-.54a1.75,1.75,0,0,0,1.42.72,1.38,1.38,0,0,0,1-.37A1.42,1.42,0,0,0,50,17.87v-.46a1.86,1.86,0,0,1-1.48.63A1.83,1.83,0,0,1,47,17.29,3.29,3.29,0,0,1,46.46,15.25Zm.91.1a2.41,2.41,0,0,0,.36,1.41,1.2,1.2,0,0,0,1,.51A1.33,1.33,0,0,0,50,16.49V14.08a1.34,1.34,0,0,0-1.25-.76,1.2,1.2,0,0,0-1,.51A2.56,2.56,0,0,0,47.37,15.35Z" transform="translate(-0.2 -0.27)"/><path class="cls-2" d="M53.15,12.65l0,.66a1.94,1.94,0,0,1,1.59-.76c1.12,0,1.68.63,1.69,1.89v3.5h-.9v-3.5a1.24,1.24,0,0,0-.27-.85,1,1,0,0,0-.8-.27,1.34,1.34,0,0,0-.77.23,1.75,1.75,0,0,0-.52.62v3.77h-.9V12.65Z" transform="translate(-0.2 -0.27)"/><path class="cls-2" d="M63.58,17.42A1.93,1.93,0,0,1,62,18a1.62,1.62,0,0,1-1.29-.49,2.09,2.09,0,0,1-.45-1.46V12.65h.9v3.42c0,.8.33,1.2,1,1.2a1.35,1.35,0,0,0,1.38-.77V12.65h.91v5.29H63.6Z" transform="translate(-0.2 -0.27)"/><path class="cls-2" d="M70.31,15.35a3.16,3.16,0,0,1-.56,2,1.73,1.73,0,0,1-1.49.74,1.93,1.93,0,0,1-1.52-.61V20h-.91V12.65h.83l0,.59a1.88,1.88,0,0,1,1.54-.69,1.8,1.8,0,0,1,1.51.72,3.21,3.21,0,0,1,.56,2Zm-.91-.1A2.34,2.34,0,0,0,69,13.84a1.21,1.21,0,0,0-1-.52,1.31,1.31,0,0,0-1.23.73v2.53A1.33,1.33,0,0,0,68,17.3a1.24,1.24,0,0,0,1-.51A2.63,2.63,0,0,0,69.4,15.25Z" transform="translate(-0.2 -0.27)"/><path class="cls-2" d="M78.63,16.7l1-4h.9L79,17.94h-.73l-1.29-4-1.26,4H75l-1.54-5.29h.9l1,4,1.23-4h.73Z" transform="translate(-0.2 -0.27)"/><path class="cls-2" d="M81.48,11.24a.54.54,0,0,1,.13-.37.61.61,0,0,1,.8,0,.55.55,0,0,1,.14.37.53.53,0,0,1-.14.37.61.61,0,0,1-.8,0A.52.52,0,0,1,81.48,11.24Zm1,6.7h-.9V12.65h.9Z" transform="translate(-0.2 -0.27)"/><path class="cls-2" d="M85.13,11.37v1.28h1v.7h-1v3.29a.75.75,0,0,0,.13.47.55.55,0,0,0,.45.16,2.24,2.24,0,0,0,.44-.06v.73a2.47,2.47,0,0,1-.7.1,1.14,1.14,0,0,1-.92-.37,1.59,1.59,0,0,1-.3-1V13.35h-1v-.7h1V11.37Z" transform="translate(-0.2 -0.27)"/><path class="cls-2" d="M88.08,13.29a1.94,1.94,0,0,1,1.57-.74c1.12,0,1.68.63,1.69,1.89v3.5h-.9v-3.5a1.29,1.29,0,0,0-.26-.85,1.07,1.07,0,0,0-.8-.27,1.35,1.35,0,0,0-.78.23,1.75,1.75,0,0,0-.52.62v3.77h-.9V10.43h.9Z" transform="translate(-0.2 -0.27)"/><path class="cls-2" d="M100.58,17a2.14,2.14,0,0,1-1,.77,3.88,3.88,0,0,1-1.51.26,2.84,2.84,0,0,1-1.54-.41,2.75,2.75,0,0,1-1-1.16,4,4,0,0,1-.38-1.75V14.1a3.74,3.74,0,0,1,.75-2.49A2.6,2.6,0,0,1,98,10.72a2.69,2.69,0,0,1,1.79.57,2.49,2.49,0,0,1,.83,1.62h-.94A1.54,1.54,0,0,0,98,11.49a1.66,1.66,0,0,0-1.43.66A3.19,3.19,0,0,0,96,14.07v.59a3.09,3.09,0,0,0,.54,1.91,1.79,1.79,0,0,0,1.49.7,3.57,3.57,0,0,0,.92-.11,1.39,1.39,0,0,0,.66-.4v-1.6H98V14.4h2.58Z" transform="translate(-0.2 -0.27)"/><path class="cls-2" d="M101.77,15.25a3.16,3.16,0,0,1,.3-1.4,2.38,2.38,0,0,1,3.85-.55,2.85,2.85,0,0,1,.67,2v.06a3.12,3.12,0,0,1-.3,1.39,2.25,2.25,0,0,1-.84,1,2.34,2.34,0,0,1-1.27.34,2.21,2.21,0,0,1-1.74-.75,2.84,2.84,0,0,1-.67-2Zm.91.1a2.24,2.24,0,0,0,.41,1.42,1.39,1.39,0,0,0,2.19,0,2.47,2.47,0,0,0,.4-1.51,2.28,2.28,0,0,0-.41-1.42,1.32,1.32,0,0,0-1.1-.54,1.28,1.28,0,0,0-1.08.54A2.46,2.46,0,0,0,102.68,15.35Z" transform="translate(-0.2 -0.27)"/><path class="cls-2" d="M107.48,15.25a3.17,3.17,0,0,1,.31-1.4,2.22,2.22,0,0,1,.85-1,2.3,2.3,0,0,1,1.25-.34,2.24,2.24,0,0,1,1.75.75,2.9,2.9,0,0,1,.67,2v.06a3.12,3.12,0,0,1-.3,1.39,2.27,2.27,0,0,1-.85,1,2.31,2.31,0,0,1-1.26.34,2.24,2.24,0,0,1-1.75-.75,2.89,2.89,0,0,1-.67-2Zm.91.1a2.3,2.3,0,0,0,.41,1.42,1.34,1.34,0,0,0,1.1.53,1.29,1.29,0,0,0,1.09-.54,2.46,2.46,0,0,0,.41-1.51,2.34,2.34,0,0,0-.41-1.42,1.33,1.33,0,0,0-1.1-.54,1.28,1.28,0,0,0-1.08.54A2.39,2.39,0,0,0,108.39,15.35Z" transform="translate(-0.2 -0.27)"/><path class="cls-2" d="M113.23,15.25a3.14,3.14,0,0,1,.57-2,2,2,0,0,1,3,0l0-.59h.83v5.17a2.16,2.16,0,0,1-.61,1.62,2.27,2.27,0,0,1-1.64.59,2.64,2.64,0,0,1-1.12-.25,2,2,0,0,1-.84-.67l.47-.54a1.78,1.78,0,0,0,1.43.72,1.38,1.38,0,0,0,1-.37,1.42,1.42,0,0,0,.37-1.05v-.46a1.86,1.86,0,0,1-1.48.63,1.81,1.81,0,0,1-1.51-.75A3.29,3.29,0,0,1,113.23,15.25Zm.91.1a2.41,2.41,0,0,0,.36,1.41,1.2,1.2,0,0,0,1,.51,1.33,1.33,0,0,0,1.26-.78V14.08a1.34,1.34,0,0,0-1.25-.76,1.2,1.2,0,0,0-1,.51A2.56,2.56,0,0,0,114.14,15.35Z" transform="translate(-0.2 -0.27)"/><path class="cls-2" d="M120.05,17.94h-.91V10.43h.91Z" transform="translate(-0.2 -0.27)"/><path class="cls-2" d="M123.69,18a2.29,2.29,0,0,1-1.75-.71,2.62,2.62,0,0,1-.67-1.89v-.16a3.18,3.18,0,0,1,.3-1.41,2.34,2.34,0,0,1,.84-1,2.14,2.14,0,0,1,1.17-.35,2,2,0,0,1,1.61.68,3,3,0,0,1,.57,1.95v.38h-3.59a1.92,1.92,0,0,0,.46,1.26,1.43,1.43,0,0,0,1.11.48,1.63,1.63,0,0,0,.82-.19,2.19,2.19,0,0,0,.58-.52l.55.43A2.22,2.22,0,0,1,123.69,18Zm-.11-4.75a1.24,1.24,0,0,0-.92.4,2,2,0,0,0-.46,1.12h2.65v-.07a1.72,1.72,0,0,0-.37-1.07A1.14,1.14,0,0,0,123.58,13.29Z" transform="translate(-0.2 -0.27)"/></svg>