<?xml version="1.0" encoding="utf-8"?>
<!-- Generator: Adobe Illustrator 22.0.1, SVG Export Plug-In . SVG Version: 6.00 Build 0)  -->
<svg version="1.1" id="Layer_1" xmlns="http://www.w3.org/2000/svg" xmlns:xlink="http://www.w3.org/1999/xlink" x="0px" y="0px"
	 viewBox="0 0 512 512" style="enable-background:new 0 0 512 512;" xml:space="preserve">
<style type="text/css">
	.st0{fill:#9B9B9B;}
</style>
<g>
	<path class="st0" d="M503.9,224.3l-82.5-20.6l-61.9-61.9c-2-2-4.7-3.1-7.5-3.1H213.3c-4.8,0-9,3.2-10.3,7.8
		c-0.3,1-6.6,23.5-10.1,56.2h-0.1H10.7c-5.9,0-10.7,4.8-10.7,10.7V320c0,5.9,4.8,10.7,10.7,10.7h54.4c5,24.3,26.5,42.7,52.3,42.7
		c25.8,0,47.3-18.4,52.3-42.7h97.1h0c0,0,0,0,0,0h97.1c4.9,24.3,26.5,42.7,52.2,42.7c25.8,0,47.3-18.4,52.2-42.7h33.1
		c5.9,0,10.7-4.8,10.7-10.7v-85.3C512,229.8,508.7,225.5,503.9,224.3z M21.3,224h14.7l-10.7,21.3h-4.1V224z M117.3,352
		c-17.6,0-32-14.4-32-32c0-17.6,14.4-32,32-32c17.6,0,32,14.4,32,32C149.3,337.6,135,352,117.3,352z M256,309.3h-86.4
		c-5-24.3-26.5-42.7-52.3-42.7c-25.8,0-47.3,18.4-52.3,42.7H21.3v-42.7H32c4,0,7.7-2.3,9.5-5.9L59.9,224h132.9h9.9H256V309.3z
		 M256,202.7h-41.6c2.1-18.9,5.2-34.1,7.2-42.7H256V202.7z M277.3,160h70.2l42.7,42.7H277.3V160z M416,352c-17.6,0-32-14.4-32-32
		c0-17.6,14.4-32,32-32c17.6,0,32,14.4,32,32C448,337.6,433.6,352,416,352z M490.6,309.3h-22.4c-4.9-24.3-26.5-42.7-52.2-42.7
		c-25.7,0-47.3,18.4-52.2,42.7h-86.4V224h137.3l33.3,8.3V256c0,5.9,4.8,10.7,10.7,10.7h32V309.3z M490.6,245.3L490.6,245.3h-21.3
		v-7.7l21.3,5.3V245.3z"/>
	<path class="st0" d="M109.8,312.5c-4.2,4.2-4.2,10.9,0,15.1s10.9,4.2,15.1,0s4.2-10.9,0-15.1C120.7,308.3,114,308.3,109.8,312.5z"
		/>
	<path class="st0" d="M408.5,312.5c-4.2,4.2-4.2,10.9,0,15.1c4.2,4.2,10.9,4.2,15.1,0s4.2-10.9,0-15.1
		C419.4,308.3,412.6,308.3,408.5,312.5z"/>
	<path class="st0" d="M320,234.7h-21.3c-5.9,0-10.7,4.8-10.7,10.7s4.8,10.7,10.7,10.7H320c5.9,0,10.7-4.8,10.7-10.7
		S325.9,234.7,320,234.7z"/>
</g>
</svg>
