<?xml version="1.0" encoding="utf-8"?>
<!-- Generator: Adobe Illustrator 22.0.1, SVG Export Plug-In . SVG Version: 6.00 Build 0)  -->
<svg version="1.1" id="Layer_1" xmlns="http://www.w3.org/2000/svg" xmlns:xlink="http://www.w3.org/1999/xlink" x="0px" y="0px"
	 viewBox="0 0 480 480" style="enable-background:new 0 0 480 480;" xml:space="preserve">
<style type="text/css">
	.st0{fill:#9B9B9B;}
</style>
<g>
	<circle class="st0" cx="64" cy="360" r="8"/>
	<path class="st0" d="M322.3,354.3c-3.1,3.1-3.1,8.2,0,11.3c3.1,3.1,8.2,3.1,11.3,0c3.1-3.1,3.1-8.2,0-11.3
		C330.5,351.4,325.5,351.4,322.3,354.3z"/>
	<path class="st0" d="M419,352.6c-1.9-0.8-4.1-0.8-6.1,0c-1,0.4-1.9,1-2.6,1.7c-0.7,0.8-1.3,1.7-1.7,2.6c-0.4,1-0.6,2-0.6,3
		c0,2.1,0.9,4.1,2.3,5.7c0.8,0.7,1.7,1.3,2.6,1.7c1.9,0.9,4.1,0.9,6.1,0c1-0.4,1.9-1,2.6-1.7c3.1-3.2,3.1-8.2,0-11.4
		C420.9,353.6,420,353,419,352.6z"/>
	<path class="st0" d="M408,272c39.7,0,72-32.3,72-72v-16c0-39.7-32.3-72-72-72H280V88c0-4.4-3.6-8-8-8h-48c-4.4,0-8,3.6-8,8v24
		c-39.7,0-72,32.3-72,72v16c0,39.7,32.3,72,72,72h16v16H128v-88c0-4.4-3.6-8-8-8H40c-3,0-5.8,1.7-7.2,4.4l-32,64
		C0.3,261.5,0,262.8,0,264v80c0,4.4,3.6,8,8,8h16.9c-0.6,2.6-0.9,5.3-0.9,8c0,22.1,17.9,40,40,40s40-17.9,40-40c0-2.7-0.3-5.4-0.9-8
		h185.8c-0.6,2.6-0.9,5.3-0.9,8c0,22.1,17.9,40,40,40s40-17.9,40-40c0-2.7-0.3-5.4-0.9-8h9.8c-0.6,2.6-0.9,5.3-0.9,8
		c0,22.1,17.9,40,40,40s40-17.9,40-40c0-2.7-0.3-5.4-0.9-8H472c4.4,0,8-3.6,8-8v-48c0-4.4-3.6-8-8-8h-80v-16H408z M16,265.9
		L44.9,208H48v64H16V265.9z M64,384c-13.3,0-24-10.7-24-24c0-7.5,3.5-14.5,9.4-19.1s13.6-6.1,20.9-4.1c4,1.1,7.7,3.2,10.7,6.2
		c1.5,1.5,2.8,3.2,3.8,5c2.1,3.7,3.3,7.8,3.3,12C88,373.3,77.3,384,64,384z M112,336H96l-0.2-0.2c-0.3-0.4-0.7-0.8-1-1.2
		c-0.7-0.9-1.4-1.7-2.2-2.5c-0.4-0.5-0.9-0.9-1.4-1.3c-0.7-0.7-1.5-1.4-2.3-2c-0.5-0.4-1.1-0.8-1.6-1.2c-0.8-0.6-1.6-1.1-2.4-1.6
		c-0.6-0.4-1.2-0.7-1.8-1c-0.9-0.5-1.7-0.9-2.6-1.3c-0.6-0.3-1.2-0.6-1.8-0.8c-0.9-0.4-1.9-0.7-2.9-1c-0.6-0.2-1.2-0.4-1.8-0.5
		c-1.1-0.3-2.2-0.5-3.3-0.7c-0.5-0.1-1.1-0.2-1.6-0.3c-3.3-0.4-6.7-0.4-10,0c-0.5,0.1-1.1,0.2-1.6,0.3c-1.1,0.2-2.2,0.4-3.3,0.7
		c-0.6,0.2-1.2,0.4-1.8,0.5c-1,0.3-1.9,0.6-2.9,1c-0.6,0.2-1.2,0.5-1.8,0.8c-0.9,0.4-1.8,0.8-2.6,1.3c-0.6,0.3-1.2,0.7-1.8,1
		c-0.8,0.5-1.6,1.1-2.4,1.6c-0.5,0.4-1.1,0.8-1.6,1.2c-0.8,0.6-1.5,1.3-2.3,2c-0.5,0.4-0.9,0.8-1.4,1.3c-0.8,0.8-1.5,1.7-2.2,2.5
		c-0.3,0.4-0.7,0.8-1,1.2L32,336H16v-24h24v-16H16v-8h40c4.4,0,8-3.6,8-8v-72h48V336z M352,128h32v24h-32V128z M352,168h32v24h-32
		V168z M352,208h32v24h-32V208z M232,96h32v16h-32V96z M328,384c-13.3,0-24-10.7-24-24c0-7.5,3.5-14.5,9.4-19.1s13.6-6.1,20.9-4.1
		c4,1.1,7.7,3.2,10.7,6.2c1.5,1.5,2.8,3.2,3.8,5c2.1,3.7,3.3,7.8,3.3,12C352,373.3,341.3,384,328,384z M416,384
		c-13.3,0-24-10.7-24-24c0-7.5,3.5-14.5,9.4-19.1s13.6-6.1,20.9-4.1c4,1.1,7.7,3.2,10.7,6.2c1.5,1.5,2.8,3.2,3.8,5
		c2.1,3.7,3.3,7.8,3.3,12C440,373.3,429.3,384,416,384z M464,304v32h-16l-0.2-0.2c-0.3-0.4-0.7-0.8-1-1.2c-0.7-0.9-1.4-1.7-2.2-2.5
		c-0.4-0.5-0.9-0.9-1.4-1.3c-0.7-0.7-1.5-1.4-2.3-2c-0.5-0.4-1.1-0.8-1.6-1.2c-0.8-0.6-1.6-1.1-2.4-1.6c-0.6-0.4-1.2-0.7-1.8-1
		c-0.9-0.5-1.7-0.9-2.6-1.3c-0.6-0.3-1.2-0.6-1.8-0.8c-0.9-0.4-1.9-0.7-2.9-1c-0.6-0.2-1.2-0.4-1.8-0.5c-1.1-0.3-2.2-0.5-3.3-0.7
		c-0.5-0.1-1.1-0.2-1.6-0.3c-3.3-0.4-6.7-0.4-10,0c-0.5,0.1-1.1,0.2-1.6,0.3c-1.1,0.2-2.2,0.4-3.3,0.7c-0.6,0.2-1.2,0.4-1.8,0.5
		c-1,0.3-1.9,0.6-2.9,1c-0.6,0.2-1.2,0.5-1.8,0.8c-0.9,0.4-1.8,0.8-2.6,1.3c-0.6,0.3-1.2,0.7-1.8,1c-0.8,0.5-1.6,1.1-2.4,1.6
		c-0.5,0.4-1.1,0.8-1.6,1.2c-0.8,0.6-1.5,1.3-2.3,2c-0.5,0.4-0.9,0.8-1.4,1.3c-0.8,0.8-1.5,1.7-2.2,2.5c-0.3,0.4-0.7,0.8-1,1.2
		L384,336h-24l-0.2-0.2c-0.3-0.4-0.7-0.8-1-1.2c-0.7-0.9-1.4-1.7-2.2-2.5c-0.4-0.5-0.9-0.9-1.4-1.3c-0.7-0.7-1.5-1.4-2.3-2
		c-0.5-0.4-1.1-0.8-1.6-1.2c-0.8-0.6-1.6-1.1-2.4-1.6c-0.6-0.4-1.2-0.7-1.8-1c-0.9-0.5-1.7-0.9-2.6-1.3c-0.6-0.3-1.2-0.6-1.8-0.8
		c-0.9-0.4-1.9-0.7-2.9-1c-0.6-0.2-1.2-0.4-1.8-0.5c-1.1-0.3-2.2-0.5-3.3-0.7c-0.5-0.1-1.1-0.2-1.6-0.3c-3.3-0.4-6.7-0.4-10,0
		c-0.5,0.1-1.1,0.2-1.6,0.3c-1.1,0.2-2.2,0.4-3.3,0.7c-0.6,0.2-1.2,0.4-1.8,0.5c-1,0.3-1.9,0.6-2.9,1c-0.6,0.2-1.2,0.5-1.8,0.8
		c-0.9,0.4-1.8,0.8-2.6,1.3c-0.6,0.3-1.2,0.7-1.8,1c-0.8,0.5-1.6,1.1-2.4,1.6c-0.5,0.4-1.1,0.8-1.6,1.2c-0.8,0.6-1.5,1.3-2.3,2
		c-0.5,0.4-0.9,0.8-1.4,1.3c-0.8,0.8-1.5,1.7-2.2,2.5c-0.3,0.4-0.7,0.8-1,1.2L296,336H128v-32H464z M248,288v-16h128v16H248z
		 M216,256c-30.9,0-56-25.1-56-56v-16c0-30.9,25.1-56,56-56h120v112c0,4.4,3.6,8,8,8h48c4.4,0,8-3.6,8-8V128h8c30.9,0,56,25.1,56,56
		v16c0,30.9-25.1,56-56,56H216z"/>
</g>
</svg>
